<?xml version="1.0" encoding="utf-8"?>
<svg viewBox="509.9942 240 23.9938 20.0003" width="20" height="20" xmlns="http://www.w3.org/2000/svg">
  <path d="M 526.027 242 C 524.679 242.003 523.498 242.902 523.136 244.2 L 519.087 258.768 C 518.888 259.49 518.235 259.992 517.487 260 C 516.757 259.99 516.11 259.528 515.865 258.841 L 513.072 251.161 C 512.702 250.099 511.84 249.283 510.76 248.972 C 510.011 248.791 509.74 247.867 510.271 247.31 C 510.518 247.051 510.883 246.944 511.231 247.028 C 512.965 247.493 514.357 248.784 514.952 250.478 L 517.426 257.278 L 521.21 243.662 C 521.815 241.501 523.782 240.005 526.027 240 L 532.987 240 C 533.756 240 534.237 240.833 533.853 241.5 C 533.674 241.809 533.344 242 532.987 242 L 526.027 242 Z M 533.587 250.2 C 533.145 249.869 532.518 249.958 532.187 250.4 L 529.987 253.333 L 527.787 250.4 C 527.325 249.784 526.369 249.899 526.067 250.607 C 525.927 250.936 525.972 251.314 526.187 251.6 L 528.737 255 L 526.187 258.4 C 525.725 259.016 526.103 259.901 526.867 259.993 C 527.222 260.036 527.572 259.886 527.787 259.6 L 529.987 256.667 L 532.187 259.6 C 532.648 260.216 533.604 260.101 533.906 259.393 C 534.046 259.064 534.001 258.686 533.787 258.4 L 531.237 255 L 533.787 251.6 C 534.118 251.158 534.028 250.531 533.587 250.2 L 533.587 250.2 Z" style="fill: rgb(255, 255, 255);" transform="matrix(0.9999999999999999, 0, 0, 0.9999999999999999, 5.684341886080802e-14, 0)"/>
</svg>
